<svg id="Background" xmlns="http://www.w3.org/2000/svg" viewBox="0 0 2048 2048"><defs><style>.cls-1{fill:#121915;}</style></defs><title>fpc_code_trademark_dark</title><path class="cls-1" d="M1024,0,0,1024,1024,2048,2048,1024Zm0,1898L150,1024l874-874,874,874Z"/><path class="cls-1" d="M1657.5,1114.5,1748,1024,1024,300,300,1024l724,724,543-543-90.5-90.5L1386,1205l-90.5,90.5-.87-.87h0L1114.5,1114.5,1205,1024h0l89.63-89.63.87-.87L1205,843l-90.5,90.5L1024,1024l-90.5,90.5L1024,1205l90.5,90.5L1205,1386l-181,181-90.5-90.5L843,1386l-90.5-90.5L662,1205h0l90.5-90.5L843,1024l-90.5-90.5L662,843l90.5-90.5L843,662h0l181,181,90.5-90.5L1024,662h0l-90.5-90.5h0L1024,481l90.5,90.5L1205,662h0l90.5,90.5L1386,843l90.5,90.5L1567,1024ZM662,1024l-90.5,90.5L481,1024l90.5-90.5Z"/></svg>