<svg id="Layer_1" data-name="Layer 1" xmlns="http://www.w3.org/2000/svg" viewBox="0 0 7798 2048"><defs><style>.cls-1{fill:#f0f1eb;}</style></defs><title>fpc_code_logo_light</title><path class="cls-1" d="M1024,0,0,1024,1024,2048,2048,1024Zm0,1898L150,1024l874-874,874,874Z"/><path class="cls-1" d="M1657.5,1114.5,1748,1024,1024,300,300,1024l724,724,543-543-90.5-90.5L1386,1205l-90.5,90.5-.87-.87h0L1114.5,1114.5,1205,1024h0l89.63-89.63.87-.87L1205,843l-90.5,90.5L1024,1024l-90.5,90.5L1024,1205l90.5,90.5L1205,1386l-181,181-90.5-90.5L843,1386l-90.5-90.5L662,1205h0l90.5-90.5L843,1024l-90.5-90.5L662,843l90.5-90.5L843,662h0l181,181,90.5-90.5L1024,662h0l-90.5-90.5h0L1024,481l90.5,90.5L1205,662h0l90.5,90.5L1386,843l90.5,90.5L1567,1024ZM662,1024l-90.5,90.5L481,1024l90.5-90.5Z"/><path class="cls-1" d="M2805.61,674.47H2409.12v327.89h348.47v97.4H2409.12v402H2298V577.07h507.61Z"/><path class="cls-1" d="M2968.87,577.07H3211.7q160.5,0,253.12,83t92.61,214.71q0,123.48-91.93,205.1t-242.83,81.63H3080v340.24H2968.87ZM3080,1066.85h142.68q104.25,0,163.26-54.19t59-137.88q0-93.28-60.38-148.17t-171.47-54.88H3080Z"/><path class="cls-1" d="M4376.47,615.16V729q-60.39-31.56-108.39-45.27T4141.86,670q-149.55,0-249,101.53t-99.45,264.78q0,170.13,98.76,271.64t262.05,101.53q131.7,0,225-70v116.61q-85.08,57.64-233.24,57.63-208.53,0-338.86-128.27t-130.34-349.17q0-208.51,132.39-339.55t332.69-131Q4285.92,565.77,4376.47,615.16Z"/><path class="cls-1" d="M5537.1,615.16V729q-60.39-31.56-108.39-45.27T5302.49,670q-149.57,0-249,101.53T4954,1036.35q0,170.13,98.77,271.64t262.05,101.53q131.68,0,225-70v116.61q-85.08,57.64-233.24,57.63-208.53,0-338.87-128.27t-130.33-349.17q0-208.51,132.39-339.55t332.69-131Q5446.55,565.77,5537.1,615.16Z"/><path class="cls-1" d="M5980.21,1515.15q-149.55,0-236.66-100.84t-87.1-254.49q0-155,89.85-258.61t233.91-103.57q157.77,0,243.53,101.52t85.74,257.92q0,155-87.81,256.56T5980.21,1515.15Zm0-621.48q-98.79,0-155,76.83t-56.24,188q0,108.39,57.61,184.53t153.66,76.13q104.27,0,160.53-74.76t56.25-185.9q0-115.21-53.51-190T5980.21,893.67Z"/><path class="cls-1" d="M6937.83,532.85H7046.2v970H6937.83v-102.9q-74.09,113.88-214,113.88-138.57,0-217.44-102.9t-78.88-249.69q0-163.26,83.68-264.09t215.39-100.85q135.81,0,211.29,116.61ZM6733.4,1415q85.05,0,144.75-63.1t59.68-201.7q0-131.68-61.75-193.42T6740.27,895q-86.44,0-143.38,69.29T6540,1162.57q0,112.48,54.88,182.47T6733.4,1415Z"/><path class="cls-1" d="M7754.1,1365.62v101.51q-81,42.55-197.56,42.54-157.77,0-254.49-96.71t-96.71-255.88q0-166,86.42-262T7514,799q130.32,0,207.15,83.69T7798,1120q0,43.92-6.85,80.94H7316.46q12.34,102.91,78.2,157.77t172.86,54.89Q7684.15,1413.64,7754.1,1365.62Zm-64.47-255.19V1083q0-86.41-46.65-137.86t-129-51.46q-78.21,0-133.09,56.25t-64.47,160.51Z"/></svg>