<svg id="Layer_1" data-name="Layer 1" xmlns="http://www.w3.org/2000/svg" viewBox="0 0 7560 2048"><defs><style>.cls-1{fill:#f0f1eb;}</style></defs><title>fpc_code_logo_light</title><path class="cls-1" d="M3096,432.28V556.33H2696.77v369h361v124h-361v480.29H2560V432.28Z"/><path class="cls-1" d="M3379,1111.37v418.26H3242.24V432.28h286.27c202,0,319.66,127.23,319.66,340.34,0,211.52-116.09,338.75-319.66,338.75Zm149.49-124c138.36,0,182.89-79.52,182.89-214.7,0-136.78-44.53-216.29-182.89-216.29H3379v431Z"/><path class="cls-1" d="M4462.05,774.21c-31.81-171.76-87.47-230.61-189.25-230.61-127.23,0-184.48,98.61-184.48,376.92v120.87c0,276.72,55.66,376.92,184.48,376.92,108.14,0,159-70,189.25-230.61h127.23c-27,246.51-141.54,354.66-316.48,354.66-197.21,0-321.26-146.32-321.26-501V920.52c0-354.65,124.05-501,321.26-501,181.3,0,289.45,114.51,318.07,354.66Z"/><path class="cls-1" d="M5521.21,774.21C5489.4,602.45,5433.74,543.6,5332,543.6c-127.23,0-184.48,98.61-184.48,376.92v120.87c0,276.72,55.66,376.92,184.48,376.92,108.14,0,159-70,189.25-230.61h127.23c-27,246.51-141.54,354.66-316.48,354.66-197.21,0-321.26-146.32-321.26-501V920.52c0-354.65,124.05-501,321.26-501,181.3,0,289.44,114.51,318.07,354.66Z"/><path class="cls-1" d="M6275,1182.93c0,227.43-97,359.43-268.78,359.43s-267.18-132-267.18-359.43V1078c0-227.42,95.42-356.24,267.18-356.24S6275,850.55,6275,1078Zm-127.23,0V1078c0-149.5-31.81-241.74-141.55-241.74S5866.3,928.47,5866.3,1078v105c0,136.77,30.22,244.92,139.95,244.92S6147.8,1319.7,6147.8,1182.93Z"/><path class="cls-1" d="M6788.69,432.28h127.23V1529.63H6788.69v-70c-31.81,52.48-76.34,82.7-162.22,82.7-168.58,0-249.69-152.68-249.69-359.43V1078c0-227.42,100.2-356.24,249.69-356.24,84.29,0,133.59,38.16,162.22,92.24Zm0,750.65V1066.84c0-143.14-54.07-230.61-141.54-230.61-95.42,0-143.14,90.65-143.14,241.74v105c0,135.18,42.94,244.92,143.14,244.92C6752.11,1427.85,6788.69,1319.7,6788.69,1182.93Z"/><path class="cls-1" d="M7552.05,1410.36c-42.94,93.83-114.51,132-227.43,132-182.89,0-275.13-138.37-275.13-359.43V1078c0-225.83,90.65-356.24,254.46-356.24C7477.3,721.73,7560,831.46,7560,1078v82.7H7176.72v22.26c0,136.77,38.17,244.92,146.31,244.92,76.34,0,103.38-30.22,135.19-82.7Zm-375.33-361h256.05c0-165.4-38.17-213.11-128.82-213.11C7206.94,836.23,7176.72,907.8,7176.72,1049.34Z"/><path class="cls-1" d="M1024,0,0,1024,1024,2048,2048,1024Zm0,1898L150,1024l874-874,874,874Z"/><path class="cls-1" d="M1657.5,1114.5,1748,1024,1024,300,300,1024l724,724,543-543-90.5-90.5L1386,1205l-90.5,90.5-.87-.87h0L1114.5,1114.5,1205,1024h0l89.63-89.63.87-.87L1205,843l-90.5,90.5L1024,1024l-90.5,90.5L1024,1205l90.5,90.5L1205,1386l-181,181-90.5-90.5L843,1386l-90.5-90.5L662,1205h0l90.5-90.5L843,1024l-90.5-90.5L662,843l90.5-90.5L843,662h0l181,181,90.5-90.5L1024,662h0l-90.5-90.5h0L1024,481l90.5,90.5L1205,662h0l90.5,90.5L1386,843l90.5,90.5L1567,1024ZM662,1024l-90.5,90.5L481,1024l90.5-90.5Z"/></svg>