<svg id="Layer_1" data-name="Layer 1" xmlns="http://www.w3.org/2000/svg" viewBox="0 0 7560 2048"><defs><style>.cls-1{fill:#121915;}.cls-2{fill:#808e87;}.cls-3{fill:#f0f1eb;}</style></defs><title>fpc_code_logo</title><rect class="cls-1" x="299.92" y="299.92" width="1448.15" height="1448.15" transform="translate(-424.15 1024) rotate(-45)"/><path class="cls-2" d="M450,1024l574,574,430.5-430.5-71.75-71.75h0L1311,1167.5h0l-71.75,71.75-71.75-71.75-71.75-71.75L1167.5,1024h0l71.75-71.75L1167.5,880.5h0l-71.75,71.75h0L1024,1024l-71.75-71.75L880.5,880.5l-71.75-71.75L880.5,737l71.75,71.75h0L1024,880.5l71.75-71.75L1024,737l-71.75-71.75L1024,593.5l71.75,71.75L1167.5,737l71.75,71.75L1167.5,880.5l71.75-71.75L1311,880.5l71.75,71.75L1454.5,1024l-71.75,71.75L1454.5,1024l71.75,71.75L1598,1024,1024,450Zm215.25-71.75L737,1024l-71.75,71.75L593.5,1024ZM880.5,880.5l71.75,71.75L1024,1024l-71.75,71.75h0L1024,1167.5l71.75,71.75L1167.5,1311l-71.75,71.75h0L1024,1454.5l-71.75-71.75h0L880.5,1311l71.75-71.75L880.5,1311l-71.75-71.75h0L737,1167.5l71.75-71.75L880.5,1024h0l-71.75-71.75h0L737,880.5l71.75-71.75Z" transform="translate(0 0)"/><rect class="cls-1" x="850.78" y="1036.31" width="202.94" height="405.88" transform="translate(-597.37 1036.31) rotate(-45)"/><rect class="cls-1" x="814.91" y="764.17" width="202.94" height="304.41" transform="translate(-379.58 916.37) rotate(-45)"/><rect class="cls-1" x="1188.51" y="525.36" width="101.47" height="710.29" transform="translate(-259.64 1134.17) rotate(-45)"/><rect class="cls-1" x="1045.02" y="829.77" width="101.47" height="101.47" transform="translate(-301.67 1032.7) rotate(-45)"/><rect class="cls-1" x="1137.78" y="994.28" width="202.94" height="202.94" transform="translate(-411.84 1197.22) rotate(-45)"/><polygon class="cls-2" points="973.26 1707.22 290.05 1024 973.26 340.78 973.26 200.74 150 1024 973.26 1847.27 973.26 1707.22"/><polygon class="cls-2" points="1074.73 200.74 1074.73 340.78 1757.95 1024 1074.73 1707.22 1074.73 1847.27 1898 1024 1074.73 200.74"/><path class="cls-3" d="M3096,432.28V556.33H2696.77v369h361v124h-361v480.29H2560V432.28Z" transform="translate(0 0)"/><path class="cls-3" d="M3379,1111.37v418.26H3242.24V432.28h286.27c202,0,319.66,127.23,319.66,340.34,0,211.52-116.09,338.75-319.66,338.75Zm149.49-124c138.36,0,182.89-79.52,182.89-214.7,0-136.78-44.53-216.29-182.89-216.29H3379v431Z" transform="translate(0 0)"/><path class="cls-3" d="M4462.05,774.21c-31.81-171.76-87.47-230.61-189.25-230.61-127.23,0-184.48,98.61-184.48,376.92v120.87c0,276.72,55.66,376.92,184.48,376.92,108.14,0,159-70,189.25-230.61h127.23c-27,246.51-141.54,354.66-316.48,354.66-197.21,0-321.26-146.32-321.26-501V920.52c0-354.65,124.05-501,321.26-501,181.3,0,289.45,114.51,318.07,354.66Z" transform="translate(0 0)"/><path class="cls-3" d="M5521.21,774.21C5489.4,602.45,5433.74,543.6,5332,543.6c-127.23,0-184.48,98.61-184.48,376.92v120.87c0,276.72,55.66,376.92,184.48,376.92,108.14,0,159-70,189.25-230.61h127.23c-27,246.51-141.54,354.66-316.48,354.66-197.21,0-321.26-146.32-321.26-501V920.52c0-354.65,124.05-501,321.26-501,181.3,0,289.44,114.51,318.07,354.66Z" transform="translate(0 0)"/><path class="cls-3" d="M6275,1182.93c0,227.43-97,359.43-268.78,359.43s-267.18-132-267.18-359.43V1078c0-227.42,95.42-356.24,267.18-356.24S6275,850.55,6275,1078Zm-127.23,0V1078c0-149.5-31.81-241.74-141.55-241.74S5866.3,928.47,5866.3,1078v105c0,136.77,30.22,244.92,139.95,244.92S6147.8,1319.7,6147.8,1182.93Z" transform="translate(0 0)"/><path class="cls-3" d="M6788.69,432.28h127.23V1529.63H6788.69v-70c-31.81,52.48-76.34,82.7-162.22,82.7-168.58,0-249.69-152.68-249.69-359.43V1078c0-227.42,100.2-356.24,249.69-356.24,84.29,0,133.59,38.16,162.22,92.24Zm0,750.65V1066.84c0-143.14-54.07-230.61-141.54-230.61-95.42,0-143.14,90.65-143.14,241.74v105c0,135.18,42.94,244.92,143.14,244.92C6752.11,1427.85,6788.69,1319.7,6788.69,1182.93Z" transform="translate(0 0)"/><path class="cls-3" d="M7552.05,1410.36c-42.94,93.83-114.51,132-227.43,132-182.89,0-275.13-138.37-275.13-359.43V1078c0-225.83,90.65-356.24,254.46-356.24C7477.3,721.73,7560,831.46,7560,1078v82.7H7176.72v22.26c0,136.77,38.17,244.92,146.31,244.92,76.34,0,103.38-30.22,135.19-82.7Zm-375.33-361h256.05c0-165.4-38.17-213.11-128.82-213.11C7206.94,836.23,7176.72,907.8,7176.72,1049.34Z" transform="translate(0 0)"/></svg>